<svg width="179" height="159" viewBox="0 0 179 159" fill="none" xmlns="http://www.w3.org/2000/svg">
<path d="M87.4181 94.2452H83.2352V35.2453C83.2352 33.66 81.9555 31.75 80.3702 31.75H67.9361C66.3507 31.75 65.071 33.66 65.071 35.2453V94.2452H61.7285V44.5088C61.7285 42.9235 60.4488 41.6438 58.8635 41.6438H46.4294C44.8441 41.6438 43.5644 42.9235 43.5644 44.5088V94.2452H40.2219V56.9238C40.2219 55.3385 38.9422 54.0588 37.3569 54.0588H24.9229C23.3376 54.0588 22.0578 55.3385 22.0578 56.9238V94.2643H17.8749C16.2896 94.2643 15.0099 95.544 15.0099 97.1293C15.0099 98.7146 16.2896 99.9943 17.8749 99.9943H24.9229H37.3569H46.4294H58.8635H67.9361H80.3702H87.4181C89.0033 99.9943 90.2831 98.7146 90.2831 97.1293C90.2831 95.544 89.0033 94.2452 87.4181 94.2452ZM27.8069 94.2452V59.7888H34.511V94.2643H27.8069V94.2452ZM49.2944 94.2452V47.3738H55.9986V94.2452H49.2944ZM70.801 94.2452V37.48H77.5052V94.2452H70.801Z" fill="white"/>
<path d="M155.299 0.273438H23.7005C11.0181 0.273438 0.684998 10.6065 0.684998 23.2889V112.601C0.684998 125.283 11.0181 135.616 23.7005 135.616H75.2323V152.691H53.3246C51.7393 152.691 50.4596 153.971 50.4596 155.556C50.4596 157.142 51.7393 158.421 53.3246 158.421H78.0973H100.903H125.675C127.261 158.421 128.54 157.142 128.54 155.556C128.54 153.971 127.261 152.691 125.675 152.691H103.768V135.616H155.299C167.982 135.616 178.315 125.283 178.315 112.601V23.2889C178.315 10.6065 167.982 0.273438 155.299 0.273438ZM6.415 109.736V26.1539H172.585V109.736H6.415ZM23.7005 6.00344H155.299C163.856 6.00344 170.962 12.2491 172.318 20.4239H6.6824C8.0385 12.2491 15.1437 6.00344 23.7005 6.00344ZM98.0377 152.691H80.9623V135.616H98.0377V152.691ZM155.299 129.886H100.903H78.0973H23.7005C15.1437 129.886 8.0385 123.64 6.6824 115.466H172.337C170.962 123.64 163.856 129.886 155.299 129.886Z" fill="white"/>
<path d="M134.366 38.7788C118.284 38.7788 105.2 51.8623 105.2 67.9445C105.2 69.4916 105.315 71.0387 105.563 72.5667C107.817 86.7962 119.945 97.1102 134.366 97.1102C150.448 97.1102 163.531 84.0267 163.531 67.9445C163.531 51.8623 150.448 38.7788 134.366 38.7788ZM134.366 91.3802C122.772 91.3802 113.031 83.0908 111.217 71.6499C111.026 70.4275 110.93 69.186 110.93 67.9445C110.93 55.0138 121.454 44.5088 134.366 44.5088C147.277 44.5088 157.801 55.0329 157.801 67.9445C157.801 80.8752 147.296 91.3802 134.366 91.3802Z" fill="white"/>
<path d="M134.366 58.8341C136.085 58.8341 137.498 60.2284 137.498 61.9665C137.498 63.5518 138.778 64.8315 140.363 64.8315C141.949 64.8315 143.228 63.5518 143.228 61.9665C143.228 58.0892 140.707 54.8231 137.231 53.6198V52.0154C137.231 50.4301 135.951 49.1504 134.366 49.1504C132.781 49.1504 131.501 50.4301 131.501 52.0154V53.6198C128.025 54.8231 125.504 58.0892 125.504 61.9665C125.504 66.646 129.171 70.466 133.774 70.7716C133.965 70.8098 134.156 70.8289 134.347 70.8289C136.066 70.8289 137.479 72.2232 137.479 73.9613C137.479 75.6994 136.085 77.0937 134.347 77.0937C132.609 77.0937 131.214 75.6994 131.214 73.9613C131.214 72.376 129.935 71.0963 128.349 71.0963C126.764 71.0963 125.484 72.376 125.484 73.9613C125.484 77.8386 128.006 81.1047 131.482 82.2889V83.8933C131.482 85.4786 132.762 86.7583 134.347 86.7583C135.932 86.7583 137.212 85.4786 137.212 83.8933V82.2889C140.688 81.0856 143.209 77.8195 143.209 73.9613C143.209 69.2818 139.542 65.4618 134.939 65.1562C134.748 65.118 134.557 65.0989 134.366 65.0989C132.647 65.0989 131.234 63.7046 131.234 61.9665C131.234 60.2284 132.647 58.8341 134.366 58.8341Z" fill="white"/>
</svg>
