<svg width="28" height="41" viewBox="0 0 28 41" fill="none" xmlns="http://www.w3.org/2000/svg">
<path d="M14.6605 2.17019C14.4955 1.59058 14.2356 0 13.9965 0C13.7644 0 13.5188 1.55188 13.3562 2.11927C10.5303 12.1597 -0.541441 17.3509 0.0206581 28.8055C0.185214 32.1003 2.19696 38.485 9.15557 40.6511C6.75281 39.0015 5.97972 36.3006 5.90274 34.7634C5.57729 28.1286 11.9901 25.1217 13.6275 19.3056C13.7224 18.9778 13.8642 18.0788 13.999 18.0788C14.1379 18.0788 14.2882 18.9989 14.3823 19.3358C16.0327 25.125 22.4264 28.1375 22.0965 34.763C22.0207 36.3291 21.2154 39.1897 18.7218 40.8255C25.7619 38.8284 27.8177 32.1276 27.979 28.8051C28.5455 17.3676 17.5084 12.167 14.6605 2.17019Z" fill="#F77F00"/>
</svg>
