<svg width="195" height="41" viewBox="0 0 195 41" fill="none" xmlns="http://www.w3.org/2000/svg">
<path d="M45.36 18H51.04V24.2H46V38H36.8V24.2H34.12V18H36.8V17.2C36.8 14.4 37.6667 12.3733 39.4 11.12C41.1333 9.84 43.3067 9.2 45.92 9.2C48.3733 9.2 50.1733 9.64 51.32 10.52L50.72 15.84C50.4267 15.6267 50.1067 15.4667 49.76 15.36C49.4133 15.2533 48.9733 15.2 48.44 15.2C47.4267 15.2 46.6533 15.3867 46.12 15.76C45.6133 16.1333 45.36 16.7733 45.36 17.68V18ZM57.36 16.72C55.5467 16.72 54.2533 16.4267 53.48 15.84C52.7333 15.2533 52.36 14.2667 52.36 12.88C52.36 11.4933 52.7333 10.5067 53.48 9.92C54.2533 9.33333 55.5467 9.04 57.36 9.04C59.1733 9.04 60.4533 9.33333 61.2 9.92C61.9733 10.5067 62.36 11.4933 62.36 12.88C62.36 14.2667 61.9733 15.2533 61.2 15.84C60.4533 16.4267 59.1733 16.72 57.36 16.72ZM61.96 38H52.76V18H61.96V38ZM79.4513 17.6C80.3846 17.6 81.0779 17.76 81.5313 18.08L80.7713 25.6C80.5313 25.4133 80.1846 25.2667 79.7313 25.16C79.2779 25.0267 78.7846 24.96 78.2513 24.96C77.0246 24.96 76.0513 25.2533 75.3313 25.84C74.6379 26.4267 74.2913 27.28 74.2913 28.4V38H65.0913V18H73.3713L73.5713 23C74.5313 19.4 76.4913 17.6 79.4513 17.6ZM103.825 27.36C103.825 28.3733 103.758 29.1733 103.625 29.76H90.9047C91.038 30.7467 91.318 31.4133 91.7447 31.76C92.1714 32.1067 92.8114 32.28 93.6647 32.28C94.9714 32.28 95.7714 31.7067 96.0647 30.56L103.465 32.56C103.011 34.48 101.891 35.9333 100.105 36.92C98.3447 37.9067 96.198 38.4 93.6647 38.4C89.878 38.4 86.998 37.5067 85.0247 35.72C83.078 33.9333 82.1047 31.36 82.1047 28C82.1047 24.6933 83.0647 22.1333 84.9847 20.32C86.9314 18.5067 89.6647 17.6 93.1847 17.6C96.6247 17.6 99.2514 18.48 101.065 20.24C102.905 22 103.825 24.3733 103.825 27.36ZM93.2247 23.68C92.5314 23.68 91.998 23.88 91.6247 24.28C91.2514 24.68 91.0114 25.3733 90.9047 26.36H95.2247C95.1447 25.4533 94.9447 24.7867 94.6247 24.36C94.3314 23.9067 93.8647 23.68 93.2247 23.68ZM115.465 38.4C112.985 38.4 110.892 38.1733 109.185 37.72C107.478 37.24 106.038 36.48 104.865 35.44L108.905 30.56C109.678 31.2533 110.572 31.8133 111.585 32.24C112.598 32.6667 113.665 32.88 114.785 32.88C115.292 32.88 115.705 32.84 116.025 32.76C116.372 32.6533 116.545 32.4933 116.545 32.28C116.545 32.04 116.318 31.8267 115.865 31.64C115.412 31.4267 114.638 31.2133 113.545 31C110.665 30.44 108.558 29.64 107.225 28.6C105.918 27.5333 105.265 26.1867 105.265 24.56C105.265 23.3867 105.652 22.28 106.425 21.24C107.225 20.1733 108.438 19.3067 110.065 18.64C111.692 17.9467 113.705 17.6 116.105 17.6C118.452 17.6 120.412 17.88 121.985 18.44C123.585 19 124.838 19.6933 125.745 20.52L121.985 24.96C120.758 23.7333 118.945 23.12 116.545 23.12C115.825 23.12 115.305 23.1867 114.985 23.32C114.665 23.4533 114.505 23.6267 114.505 23.84C114.505 24.16 115.318 24.4267 116.945 24.64C120.012 25.0667 122.252 25.8133 123.665 26.88C125.078 27.92 125.785 29.36 125.785 31.2C125.785 33.28 124.932 35 123.225 36.36C121.518 37.72 118.932 38.4 115.465 38.4ZM132.269 16.72C130.456 16.72 129.163 16.4267 128.389 15.84C127.643 15.2533 127.269 14.2667 127.269 12.88C127.269 11.4933 127.643 10.5067 128.389 9.92C129.163 9.33333 130.456 9.04 132.269 9.04C134.083 9.04 135.363 9.33333 136.109 9.92C136.883 10.5067 137.269 11.4933 137.269 12.88C137.269 14.2667 136.883 15.2533 136.109 15.84C135.363 16.4267 134.083 16.72 132.269 16.72ZM136.869 38H127.669V18H136.869V38ZM161.934 10V38H153.654L153.374 34.04C152.787 35.4 151.961 36.4667 150.894 37.24C149.827 38.0133 148.547 38.4 147.054 38.4C144.601 38.4 142.707 37.5067 141.374 35.72C140.067 33.9333 139.414 31.4 139.414 28.12C139.414 24.7867 140.081 22.2 141.414 20.36C142.774 18.52 144.667 17.6 147.094 17.6C148.454 17.6 149.601 17.9333 150.534 18.6C151.467 19.2667 152.201 20.1867 152.734 21.36V10H161.934ZM150.774 31.96C151.414 31.96 151.894 31.6667 152.214 31.08C152.561 30.4667 152.734 29.4933 152.734 28.16V27.84C152.734 26.56 152.574 25.6133 152.254 25C151.934 24.3867 151.441 24.08 150.774 24.08C150.081 24.08 149.561 24.36 149.214 24.92C148.867 25.48 148.694 26.5067 148.694 28C148.694 29.4933 148.867 30.5333 149.214 31.12C149.561 31.68 150.081 31.96 150.774 31.96ZM186.012 27.36C186.012 28.3733 185.946 29.1733 185.812 29.76H173.092C173.226 30.7467 173.506 31.4133 173.932 31.76C174.359 32.1067 174.999 32.28 175.852 32.28C177.159 32.28 177.959 31.7067 178.252 30.56L185.652 32.56C185.199 34.48 184.079 35.9333 182.292 36.92C180.532 37.9067 178.386 38.4 175.852 38.4C172.066 38.4 169.186 37.5067 167.212 35.72C165.266 33.9333 164.292 31.36 164.292 28C164.292 24.6933 165.252 22.1333 167.172 20.32C169.119 18.5067 171.852 17.6 175.372 17.6C178.812 17.6 181.439 18.48 183.252 20.24C185.092 22 186.012 24.3733 186.012 27.36ZM175.412 23.68C174.719 23.68 174.186 23.88 173.812 24.28C173.439 24.68 173.199 25.3733 173.092 26.36H177.412C177.332 25.4533 177.132 24.7867 176.812 24.36C176.519 23.9067 176.052 23.68 175.412 23.68Z" fill="black"/>
<path d="M14.6605 2.17019C14.4955 1.59058 14.2356 0 13.9965 0C13.7644 0 13.5188 1.55188 13.3562 2.11927C10.5303 12.1597 -0.541441 17.3509 0.0206581 28.8055C0.185214 32.1003 2.19696 38.485 9.15558 40.6511C6.75281 39.0015 5.97972 36.3006 5.90274 34.7634C5.57729 28.1286 11.9901 25.1217 13.6275 19.3056C13.7224 18.9778 13.8642 18.0788 13.999 18.0788C14.1379 18.0788 14.2882 18.9989 14.3823 19.3358C16.0327 25.125 22.4264 28.1375 22.0965 34.7629C22.0207 36.3291 21.2154 39.1897 18.7218 40.8255C25.7619 38.8284 27.8177 32.1276 27.979 28.8051C28.5455 17.3676 17.5084 12.167 14.6605 2.17019Z" fill="#F77F00"/>
</svg>
