<?xml version="1.0" standalone="no"?>
<!DOCTYPE svg PUBLIC "-//W3C//DTD SVG 20010904//EN"
 "http://www.w3.org/TR/2001/REC-SVG-20010904/DTD/svg10.dtd">
<svg version="1.0" xmlns="http://www.w3.org/2000/svg"
 width="928.000000pt" height="928.000000pt" viewBox="0 0 928.000000 928.000000"
 preserveAspectRatio="xMidYMid meet">
<metadata>
Created by potrace 1.11, written by Peter Selinger 2001-2013
</metadata>
<g transform="translate(0.000000,928.000000) scale(0.100000,-0.100000)"
fill="#000000" stroke="none">
<path d="M4615 9256 c-16 -24 -51 -125 -61 -176 -3 -14 -11 -50 -19 -80 -8
-30 -16 -68 -19 -85 -12 -69 -92 -314 -149 -455 -90 -224 -234 -509 -353 -702
-30 -48 -54 -90 -54 -93 0 -3 -5 -11 -10 -18 -6 -7 -34 -48 -63 -92 -28 -44
-55 -81 -59 -83 -5 -2 -8 -8 -8 -12 0 -5 -33 -55 -72 -111 -40 -55 -77 -108
-83 -117 -5 -8 -15 -23 -22 -31 -7 -9 -52 -67 -100 -130 -48 -62 -92 -120 -98
-129 -5 -9 -15 -21 -21 -27 -6 -5 -24 -28 -40 -49 -16 -22 -44 -56 -61 -75
-18 -20 -33 -39 -33 -43 0 -4 -6 -13 -13 -20 -8 -7 -67 -79 -133 -158 -65 -80
-126 -154 -135 -165 -10 -11 -64 -76 -121 -145 -56 -69 -107 -130 -113 -136
-5 -6 -23 -28 -40 -49 -16 -21 -40 -48 -52 -61 -13 -13 -23 -27 -23 -33 0 -5
-3 -11 -7 -13 -5 -1 -32 -32 -61 -68 -29 -36 -57 -70 -62 -77 -45 -55 -100
-125 -125 -158 -31 -43 -35 -48 -63 -82 -10 -12 -27 -34 -38 -48 -10 -15 -54
-74 -97 -131 -42 -57 -77 -108 -77 -114 0 -5 -4 -10 -9 -10 -5 0 -12 -8 -15
-18 -4 -10 -14 -27 -24 -38 -44 -49 -234 -354 -322 -515 -40 -74 -143 -280
-145 -289 0 -3 -11 -27 -24 -55 -13 -27 -33 -77 -46 -110 -13 -33 -29 -73 -36
-90 -7 -16 -13 -32 -14 -35 0 -3 -12 -36 -25 -75 -13 -38 -25 -72 -25 -75 0
-3 -10 -36 -22 -75 -39 -127 -75 -279 -89 -375 -2 -19 -7 -46 -11 -60 -3 -14
-7 -34 -8 -45 -1 -11 -5 -45 -9 -75 -17 -140 -19 -190 -20 -415 -1 -275 6
-359 45 -555 24 -123 60 -260 89 -345 12 -33 23 -67 25 -75 10 -49 150 -374
184 -430 5 -8 24 -42 41 -75 29 -54 185 -296 216 -334 7 -9 34 -43 61 -76 134
-168 293 -326 483 -478 88 -71 377 -257 399 -257 5 0 11 -3 13 -7 4 -11 90
-53 106 -53 6 0 12 -4 12 -8 0 -4 12 -13 28 -19 15 -6 83 -34 152 -63 69 -29
170 -67 224 -85 96 -32 98 -33 73 -9 -14 13 -31 24 -37 24 -5 0 -10 4 -10 8 0
4 -14 16 -31 26 -91 54 -339 337 -421 480 -64 113 -166 351 -175 411 -3 17 -9
38 -14 47 -5 9 -12 33 -15 53 -3 21 -8 47 -10 59 -33 143 -38 451 -9 603 3 16
8 48 11 73 3 25 10 55 15 67 5 13 7 23 4 23 -2 0 5 25 15 55 10 30 17 55 15
55 -2 0 5 26 16 58 11 31 22 62 23 67 2 6 8 23 14 38 7 16 12 30 12 32 0 2 16
39 36 82 21 43 38 83 40 88 6 24 114 210 183 315 42 63 78 120 80 125 2 6 7
12 10 15 4 3 18 21 31 40 14 19 28 40 32 45 5 6 22 28 38 50 46 61 64 84 75
98 6 6 47 57 90 112 44 55 89 109 100 121 11 11 31 35 45 54 14 18 32 41 42
52 9 10 31 38 50 61 18 22 40 48 48 57 8 8 49 58 90 110 41 52 77 97 80 100 4
3 35 43 70 90 35 47 69 90 75 97 86 101 281 419 361 588 64 136 134 326 148
398 21 114 60 227 78 227 12 0 33 -57 52 -140 10 -41 20 -82 23 -90 3 -8 7
-21 9 -28 7 -37 48 -162 66 -202 11 -25 24 -54 29 -65 14 -33 31 -80 29 -84
-1 -2 2 -7 7 -10 4 -3 25 -40 45 -81 44 -87 80 -153 89 -160 3 -3 14 -21 23
-41 9 -20 26 -46 36 -57 11 -12 20 -24 20 -27 0 -7 100 -156 110 -165 3 -3 17
-21 30 -40 14 -19 28 -39 32 -45 5 -5 22 -28 38 -50 16 -22 36 -47 43 -55 7
-8 27 -33 43 -54 16 -22 44 -56 61 -75 18 -20 33 -39 33 -42 0 -3 10 -17 23
-31 23 -25 33 -37 182 -218 48 -58 100 -120 116 -138 16 -19 29 -36 29 -38 0
-2 8 -12 18 -22 9 -10 44 -54 77 -97 33 -43 65 -83 70 -89 6 -6 22 -27 35 -46
13 -19 28 -39 33 -45 44 -53 220 -322 215 -329 -2 -2 4 -12 14 -22 9 -11 41
-68 71 -129 83 -166 113 -239 155 -380 27 -88 35 -123 56 -235 3 -14 7 -35 10
-48 19 -85 26 -359 13 -487 -6 -55 -27 -169 -51 -270 -3 -14 -26 -87 -33 -105
-4 -8 -7 -17 -7 -20 -1 -3 -7 -18 -13 -35 -24 -58 -36 -90 -38 -95 -14 -55
-207 -380 -225 -380 -5 0 -11 -8 -15 -19 -8 -26 -210 -230 -267 -271 -27 -18
-48 -37 -48 -42 0 -4 -4 -8 -10 -8 -5 0 -26 -11 -46 -25 -45 -30 -33 -31 52
-4 35 11 70 22 77 23 6 1 17 4 22 8 6 3 33 13 60 21 231 72 616 283 820 451
27 23 58 48 69 56 94 75 245 227 343 344 41 50 83 100 92 112 10 11 26 35 37
52 10 18 21 32 25 32 4 0 12 13 19 29 6 16 18 32 26 35 8 3 14 10 14 16 0 12
52 93 63 98 4 2 7 10 7 17 0 8 7 21 16 29 8 9 13 16 10 16 -3 0 17 39 44 86
28 47 50 89 50 93 0 5 10 28 23 52 21 39 41 85 79 176 6 15 12 30 13 33 1 3 6
16 12 30 6 14 27 77 48 140 35 110 39 122 45 145 1 6 11 39 21 75 31 112 57
261 76 430 15 129 7 575 -11 710 -2 14 -7 46 -10 70 -17 123 -52 291 -86 415
-17 61 -32 118 -35 128 -2 9 -7 22 -10 27 -4 6 -9 22 -11 37 -3 14 -11 38 -19
54 -8 15 -15 36 -15 47 0 10 -4 22 -8 27 -5 6 -17 33 -27 60 -37 104 -206 467
-225 485 -3 3 -11 16 -17 30 -12 24 -38 70 -112 197 -37 62 -181 285 -191 293
-3 3 -23 32 -45 65 -22 33 -44 65 -50 72 -5 7 -28 37 -50 68 -43 59 -140 188
-183 244 -115 146 -208 262 -240 299 -13 15 -35 43 -50 62 -15 19 -42 51 -59
70 -18 19 -36 43 -39 53 -3 9 -9 17 -13 17 -5 0 -30 28 -57 63 -26 34 -51 64
-55 67 -3 3 -59 70 -124 150 -66 80 -122 147 -125 150 -6 4 -204 251 -282 350
-15 19 -75 98 -133 175 -58 77 -109 145 -113 150 -54 67 -316 468 -369 564
-14 25 -38 69 -54 96 -24 41 -175 345 -209 420 -18 38 -111 280 -114 295 -2 8
-8 27 -14 41 -10 26 -35 107 -36 121 -1 3 -4 9 -8 13 -4 4 -4 13 -1 21 3 8 1
14 -3 14 -5 0 -10 12 -11 27 0 15 -6 43 -11 63 -12 38 -31 116 -36 140 -2 8
-5 22 -8 30 -3 8 -11 34 -17 58 -14 51 -42 104 -58 109 -7 3 -19 -7 -28 -21z"/>
</g>
</svg>
